<?xml version="1.0" encoding="utf-8"?>
<!-- Generator: Adobe Illustrator 22.0.0, SVG Export Plug-In . SVG Version: 6.00 Build 0)  -->
<svg version="1.1" id="Layer_1" xmlns="http://www.w3.org/2000/svg" xmlns:xlink="http://www.w3.org/1999/xlink" x="0px" y="0px"
	 viewBox="0 0 225.4 75.3" style="enable-background:new 0 0 225.4 75.3;" xml:space="preserve">
<style type="text/css">
	.st0{fill:#333333;}
	.st1{fill:#EE5586;}
</style>
<path class="st0" d="M225,66.8v5.7H0v-5.7H225z"/>
<g>
	<path fill="#333333" d="M27.163,44.813l-0.066,3.175c-0.066,1.891,0.398,3.554,2.391,3.554c2.59,0,6.507-4.385,8.433-6.2l0.398,3.024
		c-3.319,3.25-9.362,11.719-13.878,11.719c-3.851,0-3.054-6.2-3.054-9.073l-3.852,4.234c-0.93,0.982-3.054,3.251-4.382,3.251
		c-0.598,0-1.063-0.378-1.063-1.059c0-1.059,1.727-3.629,2.324-4.461c1.129-1.512,1.859-2.041,3.52-2.57l3.52-3.554l-0.066-9.073
		c-4.914,2.873-5.91,3.629-6.375,3.553c-0.465-0.076-0.73-0.454-0.73-0.983c0-1.512,9.694-11.114,11.687-11.114
		c1.593,0,1.394,2.722,1.328,3.932l-0.2,6.88l5.91-6.124c0.996-1.059,2.391-2.571,3.785-2.571c0.73,0,0.797,0.832,0.863,1.209
		c0.266,1.588-3.055,7.712-5.91,7.032L27.163,44.813z"/>
	<path fill="#333333" d="M73.045,40.352c6.242-9.299,8.5-13.458,10.757-18.448c1.129-2.419,0.863-3.251,0.133-3.251
		c-0.797,0-1.593,0.983-2.058,1.588L65.94,39.898l-9.961,15.272c-1.128,1.739-2.788,4.612-4.913,4.612
		c-2.79,0-4.117-5.973-4.848-8.316l13.878-19.96c6.972-14.214,5.777-15.727,4.647-15.727c-0.531,0-1.527,0.605-2.058,0.907
		C42.234,27.575,45.421,27.726,42.035,27.726c-1.063,0-1.926-0.983-1.594-2.797c0.664-4.083,1.195-8.241,1.726-8.921
		c0.598-0.908,0.2-0.756,6.109-5.52c0.333-0.302,1.196-1.059,1.661-1.059c0.332,0,0.797,0.303,0.797,0.756s-0.93,1.814-3.52,4.385
		l0.133,0.151l7.503-3.932c0.797-0.378,10.159-5.443,12.55-5.292c1.594,0.076,1.859,1.134,2.524,2.419l1.593,3.176
		c0.465,0.983,0.797,1.739,0.797,2.873c0,2.495-3.387,10.358-4.117,13.156l0.133,0.151l10.558-11.644
		c2.457-2.646,8.101-8.316,10.823-8.392c1.461-0.076,4.848,1.285,4.848,5.217c0,5.595-7.171,16.785-9.894,21.548l0.133,0.151
		c8.167-8.014,15.803-16.255,24.502-24.119c0.863-0.832,2.191-2.419,3.387-2.419c1.792,0,4.582,4.915,4.582,6.502
		c0,1.512-2.059,4.159-2.855,5.293l-10.292,14.29c-3.055,4.234-7.636,11.417-7.636,17.163c0,1.513,0.73,3.705,2.324,3.705
		c1.859,0,7.039-3.402,16.003-13.307l0.266,2.873c-1.594,5.217-15.871,18.071-21.581,18.071c-4.382,0-5.843-4.764-5.843-9.148
		c0-9.073,8.433-20.415,13.082-27.295l-0.133-0.151c-11.288,10.887-14.94,14.29-25.365,29.335c-0.996,1.437-4.184,5.746-5.843,5.746
		c-2.59,0-3.52-5.443-3.52-7.636c0-2.117,1.593-4.386,2.656-5.974L73.045,40.352z"/>
	<path fill="#333333" d="M137.979,47.61c-4.051,5.368-11.355,12.476-17.929,12.476c-4.847,0-7.104-4.915-7.237-9.905
		c-0.266-9.905,9.362-20.036,17.995-19.96c2.125,0,4.781,0.605,4.781,3.629c0,3.705-3.254,9.299-16.003,14.063l-0.133,1.663
		c-0.2,2.873,1.992,3.856,4.117,3.856c4.714,0,10.292-5.52,13.812-8.695L137.979,47.61z M129.746,35.438
		c0-0.529-0.333-0.983-0.797-0.832c-3.321,0.983-7.171,4.612-8.964,9.602C125.828,41.94,129.812,36.723,129.746,35.438z"/>
	<path fill="#333333" d="M149.862,44.813l-0.066,3.175c-0.066,1.891,0.398,3.554,2.391,3.554c2.59,0,6.507-4.385,8.433-6.2l0.398,3.024
		c-3.32,3.25-9.362,11.719-13.878,11.719c-3.851,0-3.054-6.2-3.054-9.073l-3.852,4.234c-0.93,0.982-3.055,3.251-4.382,3.251
		c-0.598,0-1.063-0.378-1.063-1.059c0-1.059,1.727-3.629,2.324-4.461c1.129-1.512,1.859-2.041,3.52-2.57l3.52-3.554l-0.066-9.073
		c-4.914,2.873-5.91,3.629-6.375,3.553c-0.464-0.076-0.73-0.454-0.73-0.983c0-1.512,9.694-11.114,11.687-11.114
		c1.594,0,1.395,2.722,1.328,3.932l-0.199,6.88l5.91-6.124c0.996-1.059,2.39-2.571,3.785-2.571c0.73,0,0.797,0.832,0.863,1.209
		c0.266,1.588-3.055,7.712-5.91,7.032L149.862,44.813z"/>
	<path fill="#333333" d="M158.359,71.502c-0.531,1.135-1.726,3.176-2.988,3.176c-1.528,0-1.926-2.041-1.926-3.402
		c-0.066-3.78,1.395-7.561,4.117-11.945c3.055-4.915,6.375-11.115,10.691-19.432l-0.133-0.151l-10.492,11.417l-0.266-3.554
		l17.597-21.548c1.593-1.966,2.788-4.159,5.312-4.159c0.929,0,3.054,0.378,3.054,1.815c0,1.663-3.453,5.292-4.516,6.578
		c-2.257,2.722-4.316,5.52-5.644,8.922l0.133,0.151c2.855-2.344,9.562-7.334,13.148-7.334c1.793,0,2.789,1.588,2.789,3.554
		c0,4.159-3.32,9.375-10.757,16.86c5.71,0.454,7.039-0.756,14.143-7.712l0.465,3.478c-4.914,5.444-10.89,10.887-18.062,10.887
		c-1.793,0-3.121-0.604-4.715-1.512c-0.996,0.227-1.992,0.453-3.054,0.453c-0.93,0-1.793-0.227-2.656-0.453L158.359,71.502z
		 M179.409,44.737c0.73-1.059,1.66-2.344,1.66-3.705c0-0.529-0.2-1.059-0.73-1.059c-1.063,0-4.25,2.344-5.113,3.024
		c-2.458,2.042-4.316,4.612-6.109,7.334c1.926-0.151,3.785,0.076,5.578,0.756L179.409,44.737z"/>
	<path fill="#333333" d="M211.279,49.047c-2.988,4.158-8.831,10.963-13.878,10.963c-3.918,0-5.711-5.141-5.711-8.997
		c0-9.224,8.301-18.221,12.285-18.221c1.129,0,2.922,0.454,2.922,2.117c0,3.78-6.574,10.509-9.363,12.702
		c-0.531,3.1,0.465,4.764,3.52,4.764c3.52,0,6.973-4.007,9.629-6.2L211.279,49.047z M204.904,28.028c0-3.1,3.188-5.822,5.777-5.822
		c1.195,0,2.191,0.983,2.191,2.344c0,3.024-2.457,6.729-5.312,6.729C205.967,31.279,204.904,29.843,204.904,28.028z"/>
</g>
<g>
	<circle id="svg-ico" class="st1" cx="5.2" cy="69.6" r="4"/>
	
		<animateMotion  accumulate="none" additive="replace" begin="0s" calcMode="paced" dur="6s" fill="remove" path="M210,0 0 0 210,0" repeatCount="indefinite" restart="always">
		</animateMotion>
</g>
</svg>
